#!OML:ASF H:\LiuWeirdWalks\Patient Classification 1\Patient 1\Session 1\male.ASF
:FULLY-SPECIFIED
:DEGREES
383
root -0.06061 18.1607 -22.2409 3.91878 7.11508 1.09587
lowerback 3.47427 -0.267607 1.36903
upperback -1.29302 -0.204155 2.71729
thorax -3.27554 -0.099676 2.04404
lowerneck -17.7089 1.65448 2.22766
upperneck 20.7427 3.21853 -6.3315
head 9.63859 0.952942 -2.14212
rclavicle 3.13086e-015 1.35174e-014
rhumerus -35.2638 -7.58701 -76.5884
rradius 32.0378
rwrist -9.4494
rhand -17.9705 -3.66107
rfingers 7.12502
rthumb 8.29884 -33.4781
lclavicle 3.13086e-015 1.35174e-014
lhumerus -38.1413 -0.306872 88.571
lradius 35.3594
lwrist 11.0951
lhand -11.8582 0.470182
lfingers 7.12502
lthumb 14.1936 29.9653
rfemur -18.6792 -12.8235 21.6359
rtibia 27.01
rfoot -17.5348 -4.48912
rtoes -15.8739
lfemur 0.515348 -1.47563 -16.5818
ltibia 43.7028
lfoot 21.3766 0.714137
ltoes 5.56649
384
root -0.0752329 18.1675 -22.1927 3.82318 7.01283 0.996145
lowerback 3.5378 -0.326894 1.49496
upperback -1.27532 -0.273646 2.78019
thorax -3.29183 -0.136217 2.04313
lowerneck -17.7081 1.67357 2.24586
upperneck 20.7518 3.24025 -6.33212
head 9.64299 0.9641 -2.1426
rclavicle 3.32964e-015 -7.95139e-016
rhumerus -35.1974 -7.6567 -76.5624
rradius 31.9548
rwrist -9.37282
rhand -17.9797 -3.63577
rfingers 7.12502
rthumb 8.28988 -33.4531
lclavicle 3.32964e-015 -7.95139e-016
lhumerus -37.7662 -0.429654 88.6069
lradius 35.264
lwrist 11.024
lhand -11.8635 0.466756
lfingers 7.12502
lthumb 14.1885 29.9622
rfemur -18.2765 -12.3968 21.7604
rtibia 26.7532
rfoot -17.614 -4.80229
rtoes -15.8578
lfemur -0.180929 -1.05902 -16.229
ltibia 44.9707
lfoot 21.0822 0.169236
ltoes 3.74671
385
root -0.0904684 18.1745 -22.1458 3.73378 6.90854 0.873832
lowerback 3.59908 -0.386698 1.62948
upperback -1.25855 -0.343072 2.84866
thorax -3.30799 -0.172835 2.04327
lowerneck -17.4372 1.76052 2.42438
upperneck 20.4258 3.32513 -6.4637
head 9.48784 1.01279 -2.203
rclavicle 7.45443e-016 1.74931e-014
rhumerus -35.1446 -7.7088 -76.5462
rradius 31.8834
rwrist -9.31997
rhand -17.9827 -3.63335
rfingers 7.12502
rthumb 8.28705 -33.4508
lclavicle 7.45443e-016 1.74931e-014
lhumerus -37.3867 -0.546706 88.6312
lradius 35.1669
lwrist 10.9692
lhand -11.8732 0.468252
lfingers 7.12502
lthumb 14.1792 29.9643
rfemur -17.8785 -11.915 21.9157
rtibia 26.4782
rfoot -17.6739 -5.14316
rtoes -15.8175
lfemur -0.908293 -0.618644 -15.845
ltibia 46.248
lfoot 20.466 -0.283931
ltoes 2.48258
386
root -0.105982 18.1812 -22.0996 3.64525 6.8143 0.746798
lowerback 3.65615 -0.450407 1.76303
upperback -1.2418 -0.417784 2.91496
thorax -3.32184 -0.212086 2.04216
lowerneck -16.8199 1.9598 3.05856
upperneck 19.744 3.5397 -7.08337
head 9.17118 1.11592 -2.48797
rclavicle -1.13307e-014 0
rhumerus -35.093 -7.77515 -76.5342
rradius 31.7896
rwrist -9.25265
rhand -17.9887 -3.56202
rfingers 7.12502
rthumb 8.28126 -33.3797
lclavicle -1.13307e-014 0
lhumerus -37.0418 -0.666295 88.6456
lradius 35.125
lwrist 10.9322
lhand -11.8608 0.469348
lfingers 7.12502
lthumb 14.1911 29.9646
rfemur -17.4788 -11.4132 22.0813
rtibia 26.1914
rfoot -17.7242 -5.49208
rtoes -15.7476
lfemur -1.65209 -0.177649 -15.4562
ltibia 47.5235
lfoot 19.5009 -0.624394
ltoes 2.07348
387
root -0.12144 18.1876 -22.0549 3.56064 6.71127 0.600364
lowerback 3.71585 -0.510842 1.91022
upperback -1.23191 -0.486866 2.98223
thorax -3.34468 -0.248809 2.03429
lowerneck -16.0205 2.26262 4.39519
upperneck 18.9079 3.8864 -8.47508
head 8.8134 1.25998 -3.13768
rclavicle -1.02374e-014 2.38542e-014
rhumerus -35.0723 -7.83551 -76.5275
rradius 31.7084
rwrist -9.18372
rhand -17.9799 -3.46568
rfingers 7.12502
rthumb 8.2897 -33.283
lclavicle -1.02374e-014 2.38542e-014
lhumerus -36.73 -0.796791 88.653
lradius 35.1191
lwrist 10.9156
lhand -11.8348 0.485011
lfingers 7.12502
lthumb 14.2162 29.9785
rfemur -17.089 -10.8773 22.2738
rtibia 25.8986
rfoot -17.7558 -5.84273
rtoes -15.6643
lfemur -2.4145 0.271832 -15.052
ltibia 48.7864
lfoot 18.266 -0.839369
ltoes 2.32406
388
root -0.136331 18.194 -22.0108 3.47756 6.60311 0.458429
lowerback 3.77078 -0.570271 2.0495
upperback -1.21952 -0.555163 3.04705
thorax -3.36239 -0.285007 2.02833
lowerneck -15.1621 2.608 6.27286
upperneck 18.056 4.30025 -10.48
head 8.48558 1.42032 -4.08172
rclavicle 2.60408e-014 -2.06736e-014
rhumerus -35.0695 -7.86956 -76.5313
rradius 31.6479
rwrist -9.13599
rhand -17.974 -3.36049
rfingers 7.12502
rthumb 8.29543 -33.1776
lclavicle 2.60408e-014 -2.06736e-014
lhumerus -36.4296 -0.923215 88.6565
lradius 35.1393
lwrist 10.9117
lhand -11.7977 0.547719
lfingers 7.12502
lthumb 14.252 30.0387
rfemur -16.7037 -10.3382 22.4644
rtibia 25.6058
rfoot -17.7738 -6.1836
rtoes -15.5508
lfemur -3.183 0.711026 -14.6679
ltibia 50.0208
lfoot 16.8698 -0.904441
ltoes 3.23217
389
root -0.150554 18.1997 -21.9664 3.38166 6.48455 0.323632
lowerback 3.83538 -0.62817 2.18101
upperback -1.20839 -0.621416 3.10456
thorax -3.38706 -0.320127 2.01933
lowerneck -14.4597 2.92462 8.46511
upperneck 17.4349 4.69872 -12.8383
head 8.29846 1.56256 -5.21688
rclavicle -1.36664e-014 0
rhumerus -35.1129 -7.86775 -76.553
rradius 31.6305
rwrist -9.1227
rhand -17.9687 -3.30055
rfingers 7.12502
rthumb 8.30052 -33.1175
lclavicle -1.36664e-014 0
lhumerus -36.1544 -1.05516 88.6543
lradius 35.1807
lwrist 10.9324
lhand -11.7549 0.605164
lfingers 7.12502
lthumb 14.2932 30.0932
rfemur -16.3033 -9.80805 22.6484
rtibia 25.3122
rfoot -17.7567 -6.51447
rtoes -15.3874
lfemur -3.92937 1.13995 -14.3074
ltibia 51.2125
lfoot 15.4059 -0.877503
ltoes 4.08031
390
root -0.164082 18.205 -21.9218 3.27752 6.3594 0.191587
lowerback 3.90258 -0.684872 2.30916
upperback -1.19112 -0.686255 3.15944
thorax -3.40702 -0.354493 2.00951
lowerneck -14.0889 3.16767 10.5306
upperneck 17.1872 5.02345 -15.0606
head 8.30014 1.66663 -6.32157
rclavicle 1.03368e-014 -2.06736e-014
rhumerus -35.156 -7.84893 -76.5862
rradius 31.6238
rwrist -9.12988
rhand -17.9719 -3.27516
rfingers 7.12502
rthumb 8.29748 -33.0922
lclavicle 1.03368e-014 -2.06736e-014
lhumerus -35.8739 -1.17746 88.6478
lradius 35.2216
lwrist 10.9474
lhand -11.7214 0.676779
lfingers 7.12502
lthumb 14.3255 30.1626
rfemur -15.8988 -9.29193 22.8326
rtibia 25.0234
rfoot -17.6828 -6.85552
rtoes -15.1856
lfemur -4.65674 1.55174 -13.9665
ltibia 52.3478
lfoot 13.9556 -0.771461
ltoes 4.86338
391
root -0.176812 18.2098 -21.8772 3.16322 6.23093 0.0629759
lowerback 3.96525 -0.741005 2.44094
upperback -1.15726 -0.751084 3.20697
thorax -3.40755 -0.388933 1.98984
lowerneck -14.2156 3.34899 12.0123
upperneck 17.4144 5.27663 -16.6207
head 8.52182 1.73721 -7.13508
rclavicle -1.56046e-014 2.70347e-014
rhumerus -35.1813 -7.8219 -76.6383
rradius 31.6294
rwrist -9.16568
rhand -17.9824 -3.3324
rfingers 7.12502
rthumb 8.28736 -33.1498
lclavicle -1.56046e-014 2.70347e-014
lhumerus -35.5467 -1.30103 88.6314
lradius 35.2188
lwrist 10.9551
lhand -11.7086 0.673228
lfingers 7.12502
lthumb 14.3378 30.1581
rfemur -15.4904 -8.79986 23.0141
rtibia 24.743
rfoot -17.548 -7.19342
rtoes -14.8921
lfemur -5.36458 1.95354 -13.642
ltibia 53.4189
lfoot 12.5342 -0.600477
ltoes 5.19771
392
root -0.188948 18.214 -21.8325 3.04216 6.09715 -0.0413081
lowerback 4.02564 -0.794119 2.54909
upperback -1.11075 -0.81401 3.24409
thorax -3.39367 -0.421958 1.97235
lowerneck -14.5986 3.4353 12.7918
upperneck 17.8672 5.40457 -17.4332
head 8.81305 1.75597 -7.5881
rclavicle -1.59028e-015 1.11319e-014
rhumerus -35.2045 -7.78129 -76.7037
rradius 31.6546
rwrist -9.23465
rhand -17.9999 -3.45032
rfingers 7.12502
rthumb 8.27041 -33.2684
lclavicle -1.59028e-015 1.11319e-014
lhumerus -35.1821 -1.4279 88.611
lradius 35.1751
lwrist 10.9302
lhand -11.7305 0.599853
lfingers 7.12502
lthumb 14.3167 30.0863
rfemur -15.0818 -8.33489 23.169
rtibia 24.477
rfoot -17.3625 -7.49904
rtoes -14.5006
lfemur -6.05283 2.33996 -13.3593
ltibia 54.419
lfoot 11.2149 -0.358867
ltoes 5.09836
